<?xml version="1.0" encoding="utf-8"?>
<!DOCTYPE svg PUBLIC "-//W3C//DTD SVG 20010904//EN" "http://www.w3.org/TR/2001/REC-SVG-20010904/DTD/svg10.dtd">
<svg version="1.0" xmlns="http://www.w3.org/2000/svg" width="846px" height="858px" viewBox="0 0 846 858" preserveAspectRatio="xMidYMid meet">
 <g fill="#fffffe">
  <path d="M0 428.9 l0 -428.9 423 0 423 0 0 428.9 0 428.9 -423 0 -423 0 0 -428.9z"/>
 </g>
 <g fill="#4c0186">
  <path d="M385.2 840.6 c-17.6 -4 -46.6 -10.7 -64.5 -14.8 -17.9 -4 -51.1 -11.7 -74.1 -16.9 -22.8 -5.2 -58.8 -13.4 -79.9 -18.3 -105.1 -24 -104.3 -23.8 -105.4 -26.2 -0.6 -1.3 -2.6 -2.7 -4.3 -3.2 -6.1 -1.7 -6.5 -0.7 18 -38.7 5.9 -9 12.9 -15.3 21.2 -19.3 6.1 -2.9 12.5 -4.4 63 -15.4 4.2 -0.9 18 -3.9 30.9 -6.7 l23.4 -5.2 17.6 9.9 c45.7 25.7 93.6 45.6 143.1 59.7 17.3 4.8 40.5 10.1 44.5 10.1 3.6 0 28.8 -6 47.8 -11.3 44.4 -12.6 92.9 -32.9 137 -57.7 l19.2 -10.7 26.5 5.8 c70 15.2 85.5 18.9 90.7 21.3 7.8 3.6 20.4 14 25.6 20.8 6.7 8.8 24.9 37.8 24.9 39.6 0 2.1 -2 3.5 -6.4 4.5 -3.9 0.7 -57 12.9 -119.3 27.2 -20.2 4.6 -51.6 11.8 -69.8 16 -48.4 11.1 -102.6 23.5 -134.6 30.9 -21.1 4.8 -29.9 6.4 -35.7 6.3 -5.5 0 -16.7 -2.1 -39.6 -7.5z"/>
  <path d="M410.2 739.5 c-37.9 -5.5 -88.1 -21 -123.6 -38 -27 -12.9 -46 -23.1 -51 -27.2 -1.7 -1.4 -3.9 -3 -5 -3.6 -3.2 -2 -6.2 -0.2 48.6 -28.4 12 -6.2 22.9 -12.3 24.3 -13.5 5.2 -4.9 13.2 -29.2 19 -57.5 1.6 -7.9 3.4 -14.9 4 -15.7 0.6 -0.6 4.3 -1.8 8.1 -2.6 3.8 -0.7 7.6 -1.8 8.3 -2.3 1.7 -1.3 1.8 -43.8 0.1 -70.9 -1.1 -17.3 -1.3 -19 -3.4 -20.8 -1.3 -1.1 -5.5 -4.6 -9.4 -7.7 -3.8 -3.2 -8.8 -8.2 -11.2 -11.1 l-4.2 -5.3 -24.8 -0.1 -24.7 0 -0.6 -3.2 c-0.6 -2.8 -1.2 -3.2 -4.3 -3.2 -3.3 0 -3.5 -0.2 -3.8 -3.9 l-0.3 -4 -18.9 -0.3 -18.9 -0.2 -0.3 -3 c-0.3 -2.5 -0.9 -2.9 -4 -3 -3 0 -3.7 -0.4 -3.5 -2.1 0.1 -1.1 2.1 -19.4 4.5 -40.7 2.5 -21.2 4.4 -39.1 4.4 -39.6 0 -0.7 -34.6 -1.1 -101.2 -1.1 l-101.2 0 -0.5 -2.5 c-0.4 -1.6 -1.8 -2.9 -4 -3.5 -3.2 -1 -3.4 -1.3 -3.7 -6.9 -0.2 -4.5 0.1 -6.5 1.6 -8.1 1.1 -1.2 56.7 -26.4 123.6 -56.2 l121.7 -53.9 162.8 0 162.7 0 121.5 54 c66.9 29.6 123.3 55.3 125.3 57 7.9 6.3 7.6 5.8 7.2 12.9 l-0.3 6.6 -105.5 0.5 c-69.4 0.3 -105.5 0.9 -105.4 1.6 0.3 2 2.7 23.4 3.1 28.8 0.3 3 1.7 16 3.2 29.1 1.5 13 2.7 25.1 2.7 26.9 l0 3.2 -22.1 0.2 -22.1 0.3 -1 4.8 c-0.4 2.7 -1.1 5.9 -1.4 7.2 l-0.4 2.3 -26.5 0 -26.4 0 -3 4.6 c-4.5 6.7 -15.1 17.5 -22.1 22.2 l-6 4 -0.9 9.4 c-0.5 5.2 -1 24.7 -1 43.5 l0 34 4.6 1 c3 0.5 5.1 1.8 6.2 3.5 1 1.4 2.6 2.6 3.6 2.6 2.8 0 3.8 1.9 5.2 9.6 4.7 25.4 14.8 58.7 19.2 63 1 1 16.3 9.3 34.2 18.5 17.9 9.2 33.7 17.9 35.3 19.3 1.5 1.4 3.2 2.6 3.8 2.6 0.6 0 1.7 0.6 2.3 1.4 1.5 1.8 -8.3 7.6 -35.1 20.7 -36.1 17.6 -80.2 33.3 -114 40.6 -9.7 2.1 -38.8 6.7 -41 6.5 -0.5 -0.1 -7 -1 -14.4 -2z m35.8 -160.8 c9.7 -1.9 22.1 -5.6 34 -10 l4.3 -1.6 -0.5 -11.1 c-0.3 -6 -0.4 -26.4 -0.3 -45.3 0.1 -19 0.1 -34.4 -0.1 -34.4 -0.1 0 -3.9 2 -8.4 4.6 -15.3 8.7 -36.7 15.6 -49 15.7 -13.7 0 -32 -6.1 -52.6 -17.6 l-14.5 -8 0.7 9.4 c1.4 20.2 1.9 60.9 0.9 74.8 -0.6 7.9 -1.1 14.5 -0.9 14.6 1.2 1.2 26.9 8.1 36.3 9.9 14.8 2.7 34.4 2.3 50.2 -1z m-15.7 -98.7 c14.4 -3 28.2 -9.5 57.5 -27 16.5 -9.8 28 -22.9 38.3 -43.4 5.1 -10.3 12.5 -30.2 14.7 -39.7 2 -8.7 6.8 -35.3 6.8 -37.7 0 -1.8 -6.7 -1.9 -126.3 -1.9 -100.3 0 -126.3 0.3 -126.3 1.3 0 3.5 6.8 38.7 9.2 47.4 6.7 25 19.3 50.6 31.5 63.8 5.1 5.6 9.3 8.4 29.6 19.9 16.6 9.5 24.5 12.8 37.8 16.3 11.3 2.9 16.9 3.1 27.1 1z"/>
  <path d="M417.1 449.6 c-6.9 -1.5 -9.2 -2.7 -18.1 -9.4 -8.7 -6.5 -11.8 -9.6 -16.8 -16.3 l-2.8 -3.8 2.6 -2.5 c3.2 -3.1 3.4 -4.3 0.4 -4.3 -1.2 0 -3.1 -0.5 -4.3 -1.1 -2 -1.2 -1.9 -1.4 1.4 -6.1 7 -9.8 13.6 -16.2 20.5 -19.5 6.1 -3 7.1 -3.2 10.9 -2.2 2.3 0.6 4.8 1.6 5.6 2.1 0.9 0.5 3.7 0.1 7.5 -1.2 5.5 -1.9 6.5 -1.9 9.8 -0.5 7.1 3 21.1 14.5 27.6 22.7 7.4 9.3 7.2 10.8 -0.9 11.3 l-5 0.3 4 2.5 c2.2 1.5 3.9 3.4 3.9 4.6 0 3.5 -13.4 16.6 -20.7 20.1 -7.2 3.6 -17.9 4.9 -25.7 3.2z m9.5 -31.3 c2 -0.9 3.8 -1.9 4.2 -2.3 0.6 -1.2 -18.9 -1.8 -22.7 -0.9 -2.6 0.6 -2.5 0.7 1.6 2.7 5.1 2.3 12 2.6 16.9 0.5z"/>
  <path d="M265.3 192.4 c0 -2.2 -0.5 -2.7 -3.9 -3 -2.5 -0.2 -3.9 -0.9 -3.8 -1.6 1.2 -5.5 5.9 -26.9 6.3 -28.2 0.5 -1.8 8.8 -1.9 154.4 -1.9 l154 0 0.6 2.6 c0.6 2.9 2.8 4.2 5.2 3.2 1.7 -0.7 1.5 -1.4 5.8 18 l3 13.5 -160.8 0 -160.7 0 0 -2.6z"/>
  <path d="M274.2 150.6 c0.2 -2.8 -0.1 -3 -3.8 -3.3 -3.2 -0.3 -3.9 -0.7 -3.5 -2.1 0.6 -2 7 -31.3 16.1 -73.4 6.3 -28.9 8.3 -34.4 15.1 -41 6.2 -6 12.7 -8.4 25.8 -9.5 26.9 -2.1 93.1 -4.4 110.4 -3.7 47.2 1.8 85.7 3.9 90.4 5 6.3 1.5 20.6 11.7 25.1 18.1 4.8 6.5 5.9 10.3 13.3 45.2 3.8 17.6 8.6 39.6 10.7 48.9 2.1 9.4 3.8 17.4 3.8 17.9 0 0.4 -68.3 0.9 -151.7 0.9 l-151.8 0 0.2 -2.9z"/>
 </g>
 <g fill="#c603cc">
  <path d="M385.2 840.6 c-17.6 -4 -50 -11.4 -71.9 -16.5 -21.9 -5 -54.3 -12.4 -71.9 -16.4 -17.6 -4 -50 -11.5 -71.9 -16.5 -92.4 -21.1 -106.1 -24.3 -107.3 -25.4 -2.2 -1.7 -1.6 -3.4 1.3 -3.4 1.5 0 2.7 0.4 2.7 1 0 0.4 1 0.6 2.1 0.3 1.2 -0.3 2.1 -0.1 2.1 0.5 0 0.6 1.2 0.9 2.7 0.6 1.5 -0.3 2.7 -0.1 2.7 0.5 0 0.5 1 0.7 2.1 0.4 1.2 -0.3 2.1 -0.1 2.1 0.5 0 0.6 1.2 0.7 2.7 0.4 1.7 -0.4 2.7 -0.2 2.7 0.5 0 0.6 1 1 2.1 0.6 1.2 -0.3 2.1 -0.1 2.1 0.5 0 0.6 1 0.9 2.1 0.5 1.2 -0.3 2.1 -0.1 2.1 0.5 0 0.6 1.2 0.9 2.7 0.6 1.5 -0.3 2.7 -0.1 2.7 0.5 0 0.5 1 0.7 2.1 0.4 1.2 -0.3 2.1 -0.1 2.1 0.5 0 0.6 1.2 0.9 2.7 0.6 1.5 -0.3 2.7 -0.1 2.7 0.5 0 0.5 1 0.7 2.1 0.4 1.2 -0.3 2.1 -0.1 2.1 0.5 0 0.6 1 0.9 2.1 0.5 1.1 -0.3 2.2 0 2.3 0.5 0.2 0.5 2.5 1.1 4.9 1.2 2.5 0.1 4.5 0.6 4.5 1.2 0 0.4 1 0.6 2.1 0.3 1.1 -0.3 2.2 0 2.3 0.5 0.2 0.5 2.5 1.1 4.9 1.2 2.5 0.1 4.5 0.6 4.5 1.2 0 0.4 1 0.6 2.1 0.3 1.2 -0.3 2.1 -0.1 2.1 0.5 0 0.6 1.2 0.9 2.7 0.6 1.5 -0.3 2.7 -0.1 2.7 0.5 0 0.5 1 0.7 2.1 0.4 1.2 -0.3 2.1 -0.1 2.1 0.5 0 0.6 1 0.9 2.1 0.5 1.2 -0.3 2.1 -0.1 2.1 0.5 0 0.6 1.2 0.9 2.7 0.6 1.5 -0.3 2.7 -0.1 2.7 0.5 0 0.5 1 0.7 2.1 0.4 1.2 -0.3 2.1 -0.1 2.1 0.5 0 0.6 1.2 0.9 2.7 0.6 1.5 -0.3 2.7 -0.1 2.7 0.5 0 0.5 1 0.7 2.1 0.4 1.1 -0.3 2.2 0 2.3 0.5 0.2 0.5 2.5 1.1 4.9 1.2 2.5 0.1 4.5 0.6 4.5 1.2 0 0.4 1 0.6 2.1 0.3 1.2 -0.3 2.1 -0.2 2.1 0.2 0 1.2 11.4 3.6 12.8 2.8 0.5 -0.3 1.1 -0.1 1.1 0.6 0 0.6 0.9 1 2.1 0.6 1.2 -0.3 2.1 -0.1 2.1 0.5 0 0.6 1.2 0.9 2.7 0.6 1.5 -0.3 2.7 -0.1 2.7 0.5 0 0.5 1 0.7 2.1 0.4 1.2 -0.3 2.1 -0.1 2.1 0.5 0 0.6 1 0.9 2.1 0.5 1.2 -0.3 2.1 -0.1 2.1 0.5 0 0.6 1.2 0.9 2.7 0.6 1.5 -0.3 2.7 -0.1 2.7 0.5 0 0.5 1 0.7 2.1 0.4 1.2 -0.3 2.1 -0.1 2.1 0.5 0 0.6 1.2 0.9 2.7 0.6 1.5 -0.3 2.7 -0.1 2.7 0.5 0 0.5 1 0.7 2.1 0.4 1.1 -0.3 2.2 0 2.3 0.5 0.2 0.5 2.5 1.1 4.9 1.2 2.5 0.1 4.5 0.6 4.5 1.2 0 0.4 1 0.6 2.1 0.3 1.1 -0.3 2.2 0 2.3 0.5 0.2 0.5 2.5 1.1 4.9 1.2 2.5 0.1 4.5 0.6 4.5 1.2 0 0.4 1 0.6 2.1 0.3 1.1 -0.3 2.2 0 2.3 0.5 0.2 0.5 2.5 1.1 4.9 1.2 2.5 0.1 4.5 0.6 4.5 1.2 0 0.4 1 0.6 2.1 0.3 1.2 -0.3 2.1 -0.1 2.1 0.5 0 0.6 1.2 0.9 2.7 0.6 1.5 -0.3 2.7 -0.1 2.7 0.5 0 0.5 1 0.7 2.1 0.4 1.2 -0.3 2.1 -0.1 2.1 0.5 0 0.6 1 0.9 2.1 0.5 1.2 -0.3 2.1 -0.1 2.1 0.5 0 0.6 1.2 0.9 2.7 0.6 1.5 -0.3 2.7 -0.1 2.7 0.5 0 0.5 1 0.7 2.1 0.4 1.2 -0.3 2.1 -0.1 2.1 0.5 0 0.6 1.2 0.9 2.7 0.6 1.5 -0.3 2.7 -0.1 2.7 0.5 0 0.5 1 0.7 2.1 0.4 1.1 -0.3 2.2 0 2.3 0.5 0.2 0.5 2.5 1.1 4.9 1.2 2.5 0.1 4.5 0.6 4.5 1.2 0 0.4 1 0.6 2.1 0.3 1.2 -0.3 2.1 -0.2 2.1 0.2 0 1.2 11.4 3.6 12.8 2.8 0.5 -0.3 1.1 -0.1 1.1 0.6 0 0.6 0.9 1 2.1 0.6 1.2 -0.3 2.1 -0.1 2.1 0.5 0 0.6 1.2 0.9 2.7 0.6 1.5 -0.3 2.7 -0.1 2.7 0.5 0 0.5 1 0.7 2.1 0.4 1.2 -0.3 2.1 -0.1 2.1 0.5 0 0.6 1.2 0.9 2.7 0.6 1.5 -0.3 2.7 -0.1 2.7 0.5 0 0.5 1 0.7 2.1 0.4 1.2 -0.3 2.1 -0.1 2.1 0.5 0 0.6 1 0.9 2.1 0.5 1.2 -0.3 2.1 -0.1 2.1 0.5 0 0.6 1.2 0.9 2.7 0.6 1.5 -0.3 2.7 -0.1 2.7 0.5 0 0.5 1 0.7 2.1 0.4 1.2 -0.3 2.1 -0.1 2.1 0.5 0 0.6 1.2 0.9 2.7 0.6 1.5 -0.3 2.7 -0.1 2.7 0.5 0 0.5 1 0.7 2.1 0.4 1.1 -0.3 2.2 0 2.3 0.5 0.2 0.5 2.5 1.1 4.9 1.2 2.5 0.1 4.5 0.6 4.5 1.2 0 0.4 1 0.6 2.1 0.3 1.2 -0.3 2.1 -0.1 2.1 0.5 0 0.6 1.2 0.9 2.7 0.6 1.5 -0.3 2.7 -0.1 2.7 0.3 0 0.5 2.7 1 5.9 1 3.6 0 5.9 -0.4 5.9 -1.2 0 -0.7 1.1 -1 2.7 -0.5 1.7 0.4 2.7 0.2 2.7 -0.5 0 -0.6 1 -1 2.1 -0.6 1.2 0.3 2.1 0.1 2.1 -0.4 0 -0.6 1.6 -0.7 3.5 -0.4 2.7 0.5 4.2 0.2 5.4 -1.1 1 -1 2.5 -1.5 3.3 -1.2 0.9 0.3 1.6 0.1 1.6 -0.5 0 -0.6 1.4 -0.7 3.5 -0.4 2.6 0.5 4.2 0.2 5.3 -1 1.1 -1.2 2.7 -1.5 4.8 -1.1 2.1 0.4 3.6 0.1 4.9 -1.2 1 -1 2.5 -1.5 3.3 -1.2 0.9 0.3 1.6 0.1 1.6 -0.5 0 -0.6 1.4 -0.7 3.5 -0.4 2.7 0.5 4.2 0.2 5.3 -1.1 1.1 -1.1 2.7 -1.5 3.8 -1.1 2.7 0.9 10.8 -1.3 10.8 -2.8 0 -0.7 1.1 -1 2.7 -0.5 3.3 0.9 11.2 -1.1 11.2 -2.7 0 -0.7 1.1 -1 2.7 -0.5 3.2 0.9 11.2 -1.1 11.2 -2.7 0 -0.6 1.5 -0.7 3.5 -0.4 2.7 0.5 4.2 0.2 5.4 -1.1 1 -1 2.5 -1.5 3.3 -1.2 0.9 0.3 1.6 0.1 1.6 -0.5 0 -0.7 1.1 -1 2.7 -0.5 1.7 0.4 2.7 0.2 2.7 -0.5 0 -0.6 1 -1 2.1 -0.6 1.2 0.3 2.1 0.1 2.1 -0.4 0 -0.6 1.6 -0.7 3.5 -0.4 2.7 0.5 4.2 0.2 5.3 -1.1 1.1 -1.1 2.7 -1.5 3.8 -1.1 2.7 0.9 10.8 -1.3 10.8 -2.9 0 -0.5 1 -0.9 2.1 -0.5 1.2 0.3 2.1 0.1 2.1 -0.4 0 -0.6 1.6 -0.7 3.5 -0.4 2.7 0.5 4.2 0.2 5.4 -1.1 1 -1 2.5 -1.5 3.3 -1.2 0.9 0.3 1.6 0.1 1.6 -0.5 0 -0.6 1.4 -0.7 3.5 -0.4 2.6 0.5 4.2 0.2 5.3 -1 1.1 -1.2 2.7 -1.5 4.8 -1.1 2.1 0.4 3.6 0.1 4.9 -1.2 1 -1 2.5 -1.5 3.3 -1.2 0.9 0.3 1.6 0.1 1.6 -0.5 0 -0.6 1.4 -0.7 3.5 -0.4 2.7 0.5 4.2 0.2 5.4 -1.1 1 -1 2.5 -1.5 3.3 -1.2 0.9 0.3 1.6 0.1 1.6 -0.5 0 -0.6 1.4 -0.7 3.5 -0.4 2.7 0.5 4.2 0.2 5.4 -1.1 1 -1 2.5 -1.5 3.3 -1.2 0.9 0.3 1.6 0.1 1.6 -0.5 0 -0.6 1.4 -0.7 3.5 -0.4 2.7 0.5 4.2 0.2 5.4 -1.1 1 -1 2.5 -1.5 3.3 -1.2 0.9 0.3 1.6 0.1 1.6 -0.5 0 -0.6 1.4 -0.7 3.5 -0.4 2.7 0.5 4.2 0.2 5.4 -1.1 1 -1 2.5 -1.5 3.3 -1.2 0.9 0.3 1.6 0.1 1.6 -0.5 0 -0.7 1.1 -1 2.7 -0.5 1.7 0.4 2.7 0.2 2.7 -0.5 0 -0.6 1 -1 2.1 -0.6 1.2 0.3 2.1 0.1 2.1 -0.4 0 -0.6 1.6 -0.7 3.5 -0.4 2.7 0.5 4.2 0.2 5.4 -1.1 1 -1 2.5 -1.5 3.3 -1.2 0.9 0.3 1.6 0.1 1.6 -0.5 0 -0.7 1.1 -1 2.7 -0.5 1.7 0.4 2.7 0.2 2.7 -0.5 0 -0.6 1 -1 2.1 -0.6 1.2 0.3 2.1 0.1 2.1 -0.5 0 -0.6 1.2 -0.7 2.7 -0.4 3.2 0.9 11.2 -1.1 11.2 -2.7 0 -0.6 1.5 -0.7 3.5 -0.4 2.7 0.5 4.2 0.2 5.4 -1.1 1 -1 2.5 -1.5 3.3 -1.2 0.9 0.3 1.6 0.1 1.6 -0.5 0 -0.6 1.4 -0.7 3.5 -0.4 2.7 0.5 4.2 0.2 5.4 -1.1 1 -1 2.5 -1.5 3.3 -1.2 0.9 0.3 1.6 0.1 1.6 -0.5 0 -0.7 1.1 -1 2.7 -0.5 1.7 0.4 2.7 0.2 2.7 -0.5 0 -0.6 1 -1 2.1 -0.6 1.2 0.3 2.1 0.1 2.1 -0.4 0 -0.6 1.6 -0.7 3.5 -0.4 2.7 0.5 4.2 0.2 5.4 -1.1 1 -1 2.5 -1.5 3.3 -1.2 0.9 0.3 1.6 0.1 1.6 -0.5 0 -0.6 1.4 -0.7 3.5 -0.4 2.6 0.5 4.2 0.2 5.3 -1 1.2 -1.2 2.7 -1.5 4.4 -1.1 3.1 0.7 7 -1.2 7 -3.3 0 -1.5 -15.8 -26.9 -23 -37.1 -5.3 -7.5 -4.4 -8.5 1.7 -1.9 5.9 6.4 28.8 41.6 28.8 44.1 0 2.1 -2 3.5 -6.4 4.5 -3.9 0.7 -57 12.9 -119.3 27.2 -20.2 4.6 -51.6 11.8 -69.8 16 -48.4 11.1 -102.6 23.5 -134.6 30.9 -21.1 4.8 -29.9 6.4 -35.7 6.3 -5.5 0 -16.7 -2.1 -39.6 -7.5z"/>
  <path d="M410.2 739.5 c-37.9 -5.5 -88.1 -21 -123.6 -38 -14.7 -7 -30.8 -15.1 -35.9 -18 -2.6 -1.4 -6.7 -3.8 -9.4 -5.3 -2.8 -1.5 -4.6 -3.2 -4.2 -3.8 0.4 -0.7 1.1 -0.5 1.7 0.6 0.5 1 1.4 1.5 2 1.2 0.5 -0.4 1 -0.1 1 0.5 0 0.6 0.5 0.9 1.1 0.5 0.6 -0.3 1.1 -0.1 1.1 0.5 0 0.6 0.5 0.9 1.1 0.5 0.6 -0.3 1.1 -0.1 1.1 0.5 0 0.6 0.5 0.9 1.1 0.5 0.6 -0.3 1.1 -0.1 1.1 0.5 0 0.6 0.5 0.9 1.1 0.5 0.6 -0.3 1.1 -0.1 1.1 0.5 0 0.6 0.5 0.9 1.1 0.5 0.6 -0.3 1.1 -0.1 1.1 0.5 0 0.6 0.5 0.9 1.1 0.5 0.6 -0.3 1.1 -0.1 1.1 0.6 0 0.7 0.3 1.1 0.6 0.6 0.3 -0.3 1.6 0.4 2.8 1.6 1.2 1.2 2.8 1.8 3.6 1.5 0.9 -0.3 1.5 -0.1 1.5 0.5 0 0.6 0.5 0.7 1.1 0.4 0.6 -0.3 1.1 -0.1 1.1 0.5 0 0.6 0.5 0.9 1.1 0.5 0.6 -0.3 1.1 -0.1 1.1 0.5 0 0.6 0.5 0.9 1.1 0.5 0.6 -0.3 1.1 -0.1 1.1 0.5 0 0.6 0.5 0.9 1.1 0.5 0.6 -0.3 1.1 -0.1 1.1 0.5 0 0.6 0.5 0.9 1.1 0.5 0.6 -0.3 1.1 -0.1 1.1 0.5 0 0.6 0.5 0.9 1.1 0.5 0.6 -0.3 1.1 -0.1 1.1 0.5 0 0.6 0.5 0.9 1.1 0.5 0.6 -0.3 1.1 -0.1 1.1 0.6 0 0.7 0.3 1.1 0.6 0.6 0.4 -0.3 1.4 0.1 2.2 1 1 0.9 2.3 1.4 3.1 1.1 0.9 -0.3 1.5 -0.1 1.5 0.5 0 0.6 0.5 0.7 1.1 0.4 0.6 -0.3 1.1 -0.1 1.1 0.5 0 0.6 0.5 0.9 1.1 0.5 0.6 -0.3 1.1 -0.1 1.1 0.5 0 0.7 0.7 1.1 1.6 0.6 0.9 -0.3 1.6 -0.1 1.6 0.5 0 0.6 0.5 0.7 1.1 0.4 0.6 -0.3 1.1 -0.1 1.1 0.5 0 0.7 0.7 1.1 1.6 0.6 0.9 -0.3 1.6 -0.1 1.6 0.5 0 0.6 0.5 0.7 1.1 0.4 0.6 -0.3 1.1 -0.1 1.1 0.5 0 0.7 0.7 1.1 1.6 0.6 0.9 -0.3 1.6 -0.1 1.6 0.5 0 0.6 0.5 0.7 1.1 0.4 0.6 -0.3 1.1 -0.1 1.1 0.5 0 0.7 0.7 1.1 1.6 0.6 0.9 -0.3 1.6 -0.1 1.6 0.5 0 0.6 0.5 0.7 1.1 0.4 0.6 -0.3 1.1 -0.2 1.1 0.3 0 1.3 6.3 3.6 7.6 2.8 0.5 -0.3 1 -0.1 1 0.5 0 1.3 13.4 5.8 14.9 4.9 0.5 -0.3 1.1 -0.1 1.1 0.5 0 0.7 0.7 1.1 1.6 0.6 0.9 -0.3 1.6 -0.1 1.6 0.5 0 0.6 0.6 1 1.5 0.6 0.9 -0.3 1.7 -0.1 1.9 0.4 0.2 0.5 1.8 1.2 3.5 1.3 1.8 0.1 3.5 0.6 3.8 1.1 0.3 0.4 2 1 3.7 1.1 1.7 0.1 3.4 0.6 3.7 1.2 0.4 0.5 2.2 1 4 1.1 1.8 0 3.3 0.4 3.3 0.7 0 1 11.6 3.3 12.8 2.6 0.5 -0.3 1.1 -0.1 1.1 0.6 0 0.7 1.1 1 2.7 0.7 1.5 -0.3 2.7 -0.1 2.7 0.5 0 0.5 1.2 0.7 2.7 0.5 1.5 -0.3 2.7 -0.1 2.7 0.5 0 0.5 1.2 0.7 2.7 0.5 1.5 -0.3 2.7 -0.1 2.7 0.5 0 0.6 1.8 0.7 4.3 0.4 2.6 -0.3 4.3 -0.1 4.3 0.5 0 0.7 1.5 0.9 3.7 0.5 2 -0.3 3.7 -0.2 3.7 0.4 0 0.5 3.1 1 6.9 1 4.4 0 6.9 -0.4 6.9 -1.2 0 -0.7 1.3 -1 3.7 -0.5 2.6 0.5 3.7 0.3 3.7 -0.5 0 -0.7 1.2 -1 3.7 -0.5 2.6 0.5 3.7 0.3 3.7 -0.5 0 -0.7 1.1 -1 3.2 -0.5 2 0.3 3.2 0.1 3.2 -0.5 0 -0.7 1.1 -1 2.7 -0.5 1.7 0.4 2.7 0.2 2.7 -0.5 0 -0.7 1 -1 2.7 -0.5 1.7 0.4 2.7 0.2 2.7 -0.5 0 -0.6 1 -1 2.1 -0.6 1.2 0.3 2.1 0.1 2.1 -0.5 0 -0.6 1 -0.9 2.1 -0.5 1.2 0.3 2.1 0.2 2.1 -0.2 0 -0.4 2.5 -0.7 5.4 -0.7 3.9 0 5.9 -0.5 6.8 -1.9 1 -1.3 2.1 -1.6 4 -1.2 1.9 0.5 3 0.2 3.6 -1.1 0.5 -0.9 2.3 -1.8 4.2 -1.9 1.7 -0.1 3.3 -0.5 3.6 -0.9 1 -1.2 21.2 -7.6 22.2 -6.9 1.6 1 8.7 -1.8 8.7 -3.4 0 -1.1 0.7 -1.3 2.7 -0.9 1.8 0.4 2.7 0.2 2.7 -0.7 0 -0.7 5 -3.4 11.5 -6 6.3 -2.6 15.8 -6.7 21 -9.3 13.2 -6.4 21.6 -10 22.6 -9.9 2.3 0.4 3.7 -0.2 3.2 -1.6 -0.4 -1 1.3 -2.2 4.9 -3.9 3.1 -1.4 5.8 -2.9 6.1 -3.2 1.3 -1.6 5.6 -3.2 7.1 -2.7 1.3 0.5 1.5 0.1 1.1 -1.6 -0.5 -2.1 -0.4 -2.1 2.3 0.5 1.6 1.5 3.4 2.8 4 2.8 0.6 0 1.7 0.6 2.3 1.4 1.5 1.8 -8.3 7.6 -35.1 20.7 -36.1 17.6 -80.2 33.3 -114 40.6 -9.7 2.1 -38.8 6.7 -41 6.5 -0.5 -0.1 -7 -1 -14.4 -2z"/>
  <path d="M533.1 628.4 c-6.3 -6.9 -12.5 -25 -18.9 -56 -1.5 -7.1 -2.8 -13.2 -2.8 -13.4 0 -0.6 4.7 0.6 6 1.7 0.6 0.4 1.5 2.9 1.9 5.4 2.8 17.9 11.9 50.8 16.9 61.3 1.5 3.1 2.3 5.5 1.8 5.5 -0.4 0 -2.7 -2 -5 -4.5z"/>
  <path d="M354.9 568.2 l-3.6 -1.5 0.6 -8.7 c0.4 -4.8 1 -16.2 1.4 -25.3 0.9 -19.8 -1.4 -66.2 -3.2 -67.3 -0.7 -0.5 -0.5 -0.9 0.7 -0.9 1 0 1.8 0.5 1.8 1.2 0 0.5 0.5 0.7 1.1 0.4 0.6 -0.3 1.1 -0.1 1.1 0.5 0 0.6 0.5 0.9 1.1 0.5 0.6 -0.3 1.1 -0.1 1.1 0.5 0 0.6 0.5 0.9 1.1 0.5 0.6 -0.3 1.1 -0.1 1.1 0.5 0 0.6 0.5 0.9 1.1 0.5 0.6 -0.3 1.4 0.1 1.7 1 0.3 1 1.1 1.4 1.6 1.1 0.5 -0.3 1 0 1 0.6 0 0.6 0.5 0.9 1.1 0.5 0.6 -0.3 1.1 -0.1 1.1 0.5 0 0.6 0.5 0.9 1.1 0.5 0.6 -0.3 1.1 -0.1 1.1 0.5 0 0.6 0.4 1 1 0.6 0.5 -0.3 1.3 0.1 1.6 1.1 0.3 0.9 1.1 1.3 1.7 1 0.5 -0.3 1.1 -0.1 1.1 0.5 0 0.6 0.5 0.9 1.1 0.5 0.6 -0.3 1.1 -0.1 1.1 0.5 0 0.6 0.5 0.9 1.1 0.5 0.6 -0.3 1.1 -0.1 1.1 0.5 0 0.7 0.7 1.1 1.6 0.6 0.9 -0.3 1.6 -0.1 1.6 0.5 0 0.6 0.5 0.7 1.1 0.4 0.6 -0.3 1.1 -0.1 1.1 0.5 0 0.6 0.5 0.9 1.1 0.5 0.6 -0.3 1.1 -0.1 1.1 0.5 0 0.7 0.7 1.1 1.6 0.6 0.9 -0.3 1.6 -0.1 1.6 0.5 0 0.6 0.6 1 1.3 0.7 0.7 -0.3 2 0.2 2.9 1 0.9 0.9 2.3 1.3 3.4 1.1 1.2 -0.3 2 -0.1 2 0.5 0 0.6 1 0.9 2.1 0.5 1.2 -0.3 2.1 -0.1 2.1 0.5 0 0.6 1 0.9 2.1 0.5 1.1 -0.3 2.2 0 2.5 0.6 0.5 1.6 17.9 1.2 19 -0.4 0.4 -0.6 1.7 -1 3 -0.6 1.3 0.3 2.2 0.1 2.2 -0.5 0 -0.6 1 -0.9 2.1 -0.5 1.2 0.3 2.1 0.2 2.1 -0.2 0 -0.4 2.6 -1.6 5.6 -2.6 3.1 -1 10.1 -3.9 15.6 -6.6 5.4 -2.7 10.8 -4.8 11.9 -4.8 1.2 0 2 -0.7 2 -1.7 0 -1.2 0.6 -1.6 2.1 -1.2 2 0.5 4.8 -1.5 3.6 -2.7 -0.7 -0.9 6 -3.1 7.1 -2.3 0.5 0.3 1 2.8 1 5.5 0 4.2 -0.4 5.2 -2.5 6.3 -1.3 0.6 -7.1 3.6 -13 6.6 -12 6.3 -22.9 9.9 -34.9 11.9 -16.3 2.8 -35.7 -2.5 -60.3 -16.1 l-15.2 -8.4 1 15.7 c1.1 19.6 0.9 74.1 -0.4 79.2 l-0.9 3.8 -3.6 -1.5z"/>
  <path d="M496.8 552.1 c-1.3 -0.2 -2.8 -1 -3.4 -1.7 -1.5 -1.8 -1.6 -56.9 -0.1 -74.2 0.5 -6.7 1.1 -13.3 1.1 -14.6 0 -1.7 1.8 -3.6 6.3 -6.6 6.6 -4.5 17.9 -16.1 22.1 -22.7 l2.6 -4 26.6 0 26.6 0 0.6 -2.9 c0.4 -1.6 0.9 -5.2 0.9 -8.1 l0.1 -5.2 3.7 0.6 c2 0.3 11.8 0.6 21.8 0.7 14.5 0.1 18.3 -0.2 19.1 -1.4 0.7 -1.3 -5.3 -60.9 -8.5 -84.8 l-0.6 -4.5 105.8 0 105.9 0 0.3 -5.9 0.3 -5.9 3.1 1.6 c3.6 1.9 4.5 4.5 4 11.8 l-0.3 5.2 -105.5 0.5 c-69.4 0.3 -105.5 0.9 -105.4 1.6 0.3 2 2.7 23.4 3.1 28.8 0.3 3 1.7 16 3.2 29.1 1.5 13 2.7 25.1 2.7 26.9 l0 3.2 -22.1 0.2 -22.1 0.3 -1 4.8 c-0.4 2.7 -1.1 5.9 -1.4 7.2 l-0.4 2.3 -26.5 0 -26.4 0 -3 4.6 c-4.5 6.7 -15.1 17.5 -21.9 22.2 l-6 4 -0.9 7.2 c-0.4 3.9 -1.2 23.5 -1.5 43.5 l-0.6 36.2 -2.3 -0.3z"/>
  <path d="M418.7 450.1 c-8.3 -1.6 -18.8 -7.1 -17.5 -9.2 0.4 -0.6 1 -0.5 1.5 0.2 0.4 0.7 1.4 1 2 0.6 0.6 -0.4 1.2 -0.3 1.2 0.3 0 0.6 0.7 0.9 1.6 0.5 0.9 -0.4 1.6 -0.2 1.6 0.3 0 1.1 15 1.3 16 0.3 1 -1 14.9 -6.4 16.4 -6.4 1.7 0 12 -11 13.6 -14.5 l1.1 -2.3 3.6 2.1 c2.1 1.2 3.6 3 3.6 4.2 0 3.5 -13.4 16.6 -20.7 20.1 -6.6 3.3 -17.4 4.9 -24.1 3.6z"/>
  <path d="M329.8 438.8 c-14.5 -15.6 -26.5 -39.6 -33.6 -66.8 -2.2 -8.6 -8.5 -41.9 -8.5 -45.1 0 -1.8 5.9 -1.9 130.5 -1.9 l130.5 0 -0.1 4 c0 2.1 -0.3 3.3 -0.6 2.7 -0.7 -2 -252.8 -2 -252.8 -0.1 0 3.5 6.8 38.7 9.2 47.4 5.6 21.2 16.1 43.8 26.7 57.9 3.1 4.3 5.5 7.9 5.3 8.2 -0.2 0.2 -3.2 -2.7 -6.6 -6.3z"/>
  <path d="M264.9 433 c-1.8 -4.7 -1.8 -4.7 21.3 -4.7 22.4 0 25 0.4 27.1 4.3 1.2 2.1 0.7 2.1 -23.3 2.1 -21.2 0 -24.5 -0.2 -25 -1.7z"/>
  <path d="M218.4 416.6 c0 -2.6 0.4 -3.2 2.5 -3.3 16.5 -0.5 32.4 -0.2 33.3 0.6 0.6 0.6 1.4 2.1 1.7 3.5 l0.6 2.3 -19.1 0 -19.1 0 0 -3.2z"/>
  <path d="M452 416.6 c-4 -3.3 -9 -3.7 -16.3 -1.2 -3.8 1.3 -6.1 1.6 -5.4 0.9 1.4 -1.7 -20.2 -2.3 -23.3 -0.6 -1.6 0.9 -2.6 0.7 -3.8 -0.2 -1 -0.9 -5 -1.4 -10.4 -1.5 -9.3 -0.1 -12.6 -1.1 -7.4 -2.1 1.7 -0.3 5.8 -1.4 9 -2.3 6.7 -1.8 16 -2.5 16 -1.1 0 0.5 1.2 0.6 2.7 0.3 1.5 -0.4 2.7 -0.2 2.7 0.4 0 0.5 0.7 1.1 1.6 1.1 0.9 0 1.6 -0.5 1.6 -1.2 0 -0.7 1.1 -1 2.7 -0.7 1.5 0.3 2.7 0.2 2.7 -0.2 0 -0.5 2.3 -0.7 5.3 -0.7 2.9 0.1 5.3 0.5 5.3 1 0 0.4 0.7 0.5 1.6 0.2 0.9 -0.4 1.6 -0.2 1.6 0.2 0 0.5 1.3 1.1 2.9 1.2 1.6 0 3.1 0.6 3.3 1.3 0.2 0.5 1 0.9 1.8 0.5 0.7 -0.3 1.7 -0.1 2.1 0.5 0.9 1.4 6.9 1.6 6.9 0.2 0 -0.5 1 -1.4 2.1 -1.7 2.7 -0.9 1.6 -3.1 -4.6 -9.8 -2.3 -2.6 -4 -4.9 -3.7 -5.1 1 -1.1 6.5 4.2 12.8 12 7.4 9.3 7.1 10.9 -1.7 10.9 -3.7 -0.1 -6.2 -0.7 -7.9 -2.1z"/>
  <path d="M118.9 330.5 c-104.3 -0.2 -102.8 -0.2 -102.9 -4.2 0 -1.1 21.6 -1.4 101.8 -1.6 l101.9 -0.3 0.5 2.3 c0.3 1.3 0.4 2.8 0.2 3.2 -0.1 0.4 -45.8 0.7 -101.4 0.5z"/>
  <path d="M265.3 192.3 l0 -2.7 156.6 0 c148.4 0 156.6 -0.1 156.6 -1.8 -0.1 -1.1 -1.2 -7 -2.6 -13.2 l-2.5 -11.3 3.1 0 c2.2 0 3.2 0.6 3.6 2.2 0.2 1.3 1.8 8.3 3.5 15.9 l3 13.5 -160.8 0 -160.7 0 0 -2.7z"/>
  <path d="M274.2 150.6 c0.1 -1.7 0.7 -3.3 1.3 -3.7 0.6 -0.4 66.3 -0.9 146 -0.9 80.8 0 145.5 -0.4 146.4 -1 1.2 -0.7 -0.4 -9.5 -9 -48.7 -10.3 -47.7 -12.7 -56.5 -16.1 -60.2 -3.3 -3.6 -0.5 -3.6 3.2 0 7.2 7 8.8 11.6 17.7 52.6 4.6 21.2 9.6 44 11.1 50.7 1.5 6.6 2.8 12.6 2.8 13 0 0.5 -67 1 -151.7 1 l-151.8 0 0.2 -2.9z"/>
 </g>
 <g fill="#80009d">
  <path d="M423 841.7 c0 -0.5 0.7 -1.1 1.6 -1.1 0.9 0 1.6 0.5 1.6 1.1 0 0.6 -0.7 1.1 -1.6 1.1 -0.9 0 -1.6 -0.4 -1.6 -1.1z"/>
  <path d="M432.6 839.6 c0 -0.5 0.7 -1.1 1.6 -1.1 0.9 0 1.6 0.5 1.6 1.1 0 0.6 -0.7 1.1 -1.6 1.1 -0.9 0 -1.6 -0.4 -1.6 -1.1z"/>
  <path d="M446.4 836.4 c0 -0.5 0.7 -1.1 1.6 -1.1 0.9 0 1.6 0.5 1.6 1.1 0 0.6 -0.7 1.1 -1.6 1.1 -0.9 0 -1.6 -0.4 -1.6 -1.1z"/>
  <path d="M456 834.3 c0 -0.5 0.7 -1.1 1.6 -1.1 0.9 0 1.6 0.5 1.6 1.1 0 0.6 -0.7 1.1 -1.6 1.1 -0.9 0 -1.6 -0.4 -1.6 -1.1z"/>
  <path d="M465.6 832.1 c0 -0.5 0.7 -1.1 1.6 -1.1 0.9 0 1.6 0.5 1.6 1.1 0 0.6 -0.7 1.1 -1.6 1.1 -0.9 0 -1.6 -0.4 -1.6 -1.1z"/>
  <path d="M469.9 831.1 c0 -0.5 0.7 -1.1 1.6 -1.1 0.9 0 1.6 0.5 1.6 1.1 0 0.6 -0.7 1.1 -1.6 1.1 -0.9 0 -1.6 -0.4 -1.6 -1.1z"/>
  <path d="M479.5 829 c0 -0.5 0.7 -1.1 1.6 -1.1 0.9 0 1.6 0.5 1.6 1.1 0 0.6 -0.7 1.1 -1.6 1.1 -0.9 0 -1.6 -0.4 -1.6 -1.1z"/>
  <path d="M493.3 825.8 c0 -0.5 0.7 -1.1 1.6 -1.1 0.9 0 1.6 0.5 1.6 1.1 0 0.6 -0.7 1.1 -1.6 1.1 -0.9 0 -1.6 -0.4 -1.6 -1.1z"/>
  <path d="M507.2 822.6 c0 -0.5 0.7 -1.1 1.6 -1.1 0.9 0 1.6 0.5 1.6 1.1 0 0.6 -0.7 1.1 -1.6 1.1 -0.9 0 -1.6 -0.4 -1.6 -1.1z"/>
  <path d="M521 819.4 c0 -0.5 0.7 -1.1 1.6 -1.1 0.9 0 1.6 0.5 1.6 1.1 0 0.6 -0.7 1.1 -1.6 1.1 -0.9 0 -1.6 -0.4 -1.6 -1.1z"/>
  <path d="M530.6 817.2 c0 -0.5 0.7 -1.1 1.6 -1.1 0.9 0 1.6 0.5 1.6 1.1 0 0.6 -0.7 1.1 -1.6 1.1 -0.9 0 -1.6 -0.4 -1.6 -1.1z"/>
  <path d="M534.9 816.2 c0 -0.5 0.7 -1.1 1.6 -1.1 0.9 0 1.6 0.5 1.6 1.1 0 0.6 -0.7 1.1 -1.6 1.1 -0.9 0 -1.6 -0.4 -1.6 -1.1z"/>
  <path d="M544.5 814 c0 -0.5 0.7 -1.1 1.6 -1.1 0.9 0 1.6 0.5 1.6 1.1 0 0.6 -0.7 1.1 -1.6 1.1 -0.9 0 -1.6 -0.4 -1.6 -1.1z"/>
  <path d="M572.2 807.6 c0 -0.5 0.7 -1.1 1.6 -1.1 0.9 0 1.6 0.5 1.6 1.1 0 0.6 -0.7 1.1 -1.6 1.1 -0.9 0 -1.6 -0.4 -1.6 -1.1z"/>
  <path d="M586 804.4 c0 -0.5 0.7 -1.1 1.6 -1.1 0.9 0 1.6 0.5 1.6 1.1 0 0.6 -0.7 1.1 -1.6 1.1 -0.9 0 -1.6 -0.4 -1.6 -1.1z"/>
  <path d="M595.6 802.3 c0 -0.5 0.7 -1.1 1.6 -1.1 0.9 0 1.6 0.5 1.6 1.1 0 0.6 -0.7 1.1 -1.6 1.1 -0.9 0 -1.6 -0.4 -1.6 -1.1z"/>
  <path d="M605.2 800.2 c0 -0.5 0.7 -1.1 1.6 -1.1 0.9 0 1.6 0.5 1.6 1.1 0 0.6 -0.7 1.1 -1.6 1.1 -0.9 0 -1.6 -0.4 -1.6 -1.1z"/>
  <path d="M609.5 799.1 c0 -0.5 0.7 -1.1 1.6 -1.1 0.9 0 1.6 0.5 1.6 1.1 0 0.6 -0.7 1.1 -1.6 1.1 -0.9 0 -1.6 -0.4 -1.6 -1.1z"/>
  <path d="M619.1 797 c0 -0.5 0.7 -1.1 1.6 -1.1 0.9 0 1.6 0.5 1.6 1.1 0 0.6 -0.7 1.1 -1.6 1.1 -0.9 0 -1.6 -0.4 -1.6 -1.1z"/>
  <path d="M623.3 795.9 c0 -0.5 0.7 -1.1 1.6 -1.1 0.9 0 1.6 0.5 1.6 1.1 0 0.6 -0.7 1.1 -1.6 1.1 -0.9 0 -1.6 -0.4 -1.6 -1.1z"/>
  <path d="M637.2 792.7 c0 -0.5 0.7 -1.1 1.6 -1.1 0.9 0 1.6 0.5 1.6 1.1 0 0.6 -0.7 1.1 -1.6 1.1 -0.9 0 -1.6 -0.4 -1.6 -1.1z"/>
  <path d="M651 789.5 c0 -0.5 0.7 -1.1 1.6 -1.1 0.9 0 1.6 0.5 1.6 1.1 0 0.6 -0.7 1.1 -1.6 1.1 -0.9 0 -1.6 -0.4 -1.6 -1.1z"/>
  <path d="M660.6 787.4 c0 -0.5 0.7 -1.1 1.6 -1.1 0.9 0 1.6 0.5 1.6 1.1 0 0.6 -0.7 1.1 -1.6 1.1 -0.9 0 -1.6 -0.4 -1.6 -1.1z"/>
  <path d="M664.9 786.3 c0 -0.5 0.7 -1.1 1.6 -1.1 0.9 0 1.6 0.5 1.6 1.1 0 0.6 -0.7 1.1 -1.6 1.1 -0.9 0 -1.6 -0.4 -1.6 -1.1z"/>
  <path d="M674.5 784.2 c0 -0.5 0.7 -1.1 1.6 -1.1 0.9 0 1.6 0.5 1.6 1.1 0 0.6 -0.7 1.1 -1.6 1.1 -0.9 0 -1.6 -0.4 -1.6 -1.1z"/>
  <path d="M684 782.1 c0 -0.5 0.7 -1.1 1.6 -1.1 0.9 0 1.6 0.5 1.6 1.1 0 0.6 -0.7 1.1 -1.6 1.1 -0.9 0 -1.6 -0.4 -1.6 -1.1z"/>
  <path d="M688.3 781 c0 -0.5 0.7 -1.1 1.6 -1.1 0.9 0 1.6 0.5 1.6 1.1 0 0.6 -0.7 1.1 -1.6 1.1 -0.9 0 -1.6 -0.4 -1.6 -1.1z"/>
  <path d="M697.9 778.9 c0 -0.5 0.7 -1.1 1.6 -1.1 0.9 0 1.6 0.5 1.6 1.1 0 0.6 -0.7 1.1 -1.6 1.1 -0.9 0 -1.6 -0.4 -1.6 -1.1z"/>
  <path d="M711.7 775.7 c0 -0.5 0.7 -1.1 1.6 -1.1 0.9 0 1.6 0.5 1.6 1.1 0 0.6 -0.7 1.1 -1.6 1.1 -0.9 0 -1.6 -0.4 -1.6 -1.1z"/>
  <path d="M725.6 772.5 c0 -0.5 0.7 -1.1 1.6 -1.1 0.9 0 1.6 0.5 1.6 1.1 0 0.6 -0.7 1.1 -1.6 1.1 -0.9 0 -1.6 -0.4 -1.6 -1.1z"/>
  <path d="M735.2 770.4 c0 -0.5 0.7 -1.1 1.6 -1.1 0.9 0 1.6 0.5 1.6 1.1 0 0.6 -0.7 1.1 -1.6 1.1 -0.9 0 -1.6 -0.4 -1.6 -1.1z"/>
  <path d="M739.5 769.3 c0 -0.5 0.7 -1.1 1.6 -1.1 0.9 0 1.6 0.5 1.6 1.1 0 0.6 -0.7 1.1 -1.6 1.1 -0.9 0 -1.6 -0.4 -1.6 -1.1z"/>
  <path d="M749 767.2 c0 -0.5 0.7 -1.1 1.6 -1.1 0.9 0 1.6 0.5 1.6 1.1 0 0.6 -0.7 1.1 -1.6 1.1 -0.9 0 -1.6 -0.4 -1.6 -1.1z"/>
  <path d="M758.6 765 c0 -0.5 0.7 -1.1 1.6 -1.1 0.9 0 1.6 0.5 1.6 1.1 0 0.6 -0.7 1.1 -1.6 1.1 -0.9 0 -1.6 -0.4 -1.6 -1.1z"/>
  <path d="M762.9 764 c0 -0.5 0.7 -1.1 1.6 -1.1 0.9 0 1.6 0.5 1.6 1.1 0 0.6 -0.7 1.1 -1.6 1.1 -0.9 0 -1.6 -0.4 -1.6 -1.1z"/>
  <path d="M772.5 761.8 c0 -0.5 0.7 -1.1 1.6 -1.1 0.9 0 1.6 0.5 1.6 1.1 0 0.6 -0.7 1.1 -1.6 1.1 -0.9 0 -1.6 -0.4 -1.6 -1.1z"/>
  <path d="M424.1 734.1 c0 -0.5 1 -1.1 2.1 -1.1 1.2 0 2.1 0.5 2.1 1.1 0 0.6 -1 1.1 -2.1 1.1 -1.2 0 -2.1 -0.4 -2.1 -1.1z"/>
  <path d="M431.5 733.1 c0 -0.5 1 -1.1 2.1 -1.1 1.2 0 2.1 0.5 2.1 1.1 0 0.6 -1 1.1 -2.1 1.1 -1.2 0 -2.1 -0.4 -2.1 -1.1z"/>
  <path d="M439 732 c0 -0.5 1 -1.1 2.2 -1.1 1.2 0 1.8 0.5 1.5 1.1 -0.3 0.6 -1.4 1.1 -2.2 1.1 -0.9 0 -1.5 -0.4 -1.5 -1.1z"/>
  <path d="M445.4 730.9 c0 -0.5 0.7 -1.1 1.6 -1.1 0.9 0 1.6 0.5 1.6 1.1 0 0.6 -0.7 1.1 -1.6 1.1 -0.9 0 -1.6 -0.4 -1.6 -1.1z"/>
  <path d="M450.7 729.9 c0 -0.5 0.7 -1.1 1.6 -1.1 0.9 0 1.6 0.5 1.6 1.1 0 0.6 -0.7 1.1 -1.6 1.1 -0.9 0 -1.6 -0.4 -1.6 -1.1z"/>
  <path d="M456 728.8 c0 -0.5 0.7 -1.1 1.6 -1.1 0.9 0 1.6 0.5 1.6 1.1 0 0.6 -0.7 1.1 -1.6 1.1 -0.9 0 -1.6 -0.4 -1.6 -1.1z"/>
  <path d="M460.3 727.7 c0 -0.5 0.7 -1.1 1.6 -1.1 0.9 0 1.6 0.5 1.6 1.1 0 0.6 -0.7 1.1 -1.6 1.1 -0.9 0 -1.6 -0.4 -1.6 -1.1z"/>
  <path d="M464.6 726.7 c0 -0.5 0.7 -1.1 1.6 -1.1 0.9 0 1.6 0.5 1.6 1.1 0 0.6 -0.7 1.1 -1.6 1.1 -0.9 0 -1.6 -0.4 -1.6 -1.1z"/>
  <path d="M484.8 721.4 c0 -1.1 5.3 -2.7 6.2 -1.7 0.9 0.7 0.1 1.2 -3.2 2 -1.7 0.3 -3 0.2 -3 -0.3z"/>
  <path d="M492.3 719.5 c0 -1.2 21.2 -8.2 22.1 -7.4 0.7 0.6 -2.7 2.1 -12.4 5.1 -3.7 1.2 -7.5 2.3 -8.2 2.7 -0.9 0.3 -1.5 0.1 -1.5 -0.4z"/>
  <path d="M528.5 706.6 c0 -0.4 5.1 -2.9 11.5 -5.4 6.3 -2.6 15.8 -6.7 21 -9.3 15.1 -7.4 21.9 -10.2 22.7 -9.6 1 1.1 -51.4 25.1 -54.6 25.1 -0.3 0 -0.6 -0.4 -0.6 -0.9z"/>
  <path d="M281.6 699 c-1.4 -0.5 -2.5 -1.8 -2.5 -2.7 0 -1.6 0.1 -1.6 1.7 0 1 1 2.5 1.5 3.2 1.2 0.9 -0.3 1.5 -0.1 1.5 0.5 0 0.6 0.5 0.7 1.1 0.4 0.6 -0.3 1.1 -0.1 1.1 0.4 0 1.4 -2.8 1.4 -6.1 0.1z"/>
  <path d="M254.7 685.5 c-15.7 -8.5 -18.2 -10.1 -17.5 -11.3 0.4 -0.7 1.1 -0.5 1.7 0.6 0.5 1 1.4 1.5 2 1.2 0.5 -0.4 1 -0.1 1 0.5 0 0.6 0.5 0.9 1.1 0.5 0.6 -0.3 1.1 -0.1 1.1 0.5 0 0.6 0.5 0.9 1.1 0.5 0.6 -0.3 1.1 -0.1 1.1 0.5 0 0.6 0.5 0.9 1.1 0.5 0.6 -0.3 1.1 -0.1 1.1 0.5 0 0.6 0.5 0.9 1.1 0.5 0.6 -0.3 1.1 -0.1 1.1 0.5 0 0.6 0.5 0.9 1.1 0.5 0.6 -0.3 1.1 -0.1 1.1 0.5 0 0.6 0.5 0.9 1.1 0.5 0.6 -0.3 1.1 -0.1 1.1 0.6 0 0.7 0.3 1.1 0.6 0.7 0.3 -0.4 1.6 0.3 2.8 1.5 1.2 1.2 2.8 1.8 3.6 1.5 0.9 -0.3 1.5 -0.1 1.5 0.5 0 0.6 0.5 0.7 1.1 0.4 0.6 -0.3 1.1 -0.1 1.1 0.5 0 0.6 0.5 0.9 1.1 0.5 0.6 -0.3 1.1 -0.1 1.1 0.4 0 2.2 -3.8 1.1 -12.8 -3.7z"/>
  <path d="M586.7 680 c-0.3 -0.5 1.9 -2.1 5 -3.5 3.1 -1.4 5.8 -2.9 6.1 -3.2 0.9 -1.1 5.1 -3.1 6.5 -3.1 2.1 0 0.1 1.6 -8.3 6.3 -8.4 4.8 -8.4 4.8 -9.3 3.5z"/>
  <path d="M426.2 489.1 c0 -0.5 1 -1.1 2.2 -1.1 1.2 0 1.8 0.5 1.5 1.1 -0.3 0.6 -1.4 1.1 -2.2 1.1 -0.9 0 -1.5 -0.4 -1.5 -1.1z"/>
  <path d="M435.8 487.1 c0 -0.5 2.6 -1.7 5.6 -2.7 3.1 -1 10.1 -3.9 15.6 -6.6 11.1 -5.4 15.8 -6 6.2 -0.9 -11.4 6.2 -27.4 12.1 -27.4 10.1z"/>
  <path d="M371.6 478.1 c-4.9 -2.6 -8.3 -5.1 -8.2 -6.1 0 -1.1 0.2 -1.2 0.6 -0.2 0.2 0.6 1 1.1 1.5 0.6 0.5 -0.3 1 0 1 0.6 0 0.6 0.5 0.9 1.1 0.5 0.6 -0.3 1.1 -0.1 1.1 0.5 0 0.6 0.4 1 1 0.6 0.5 -0.3 1.3 0.1 1.6 1.1 0.3 0.9 1.1 1.3 1.7 1 0.5 -0.3 1.1 -0.1 1.1 0.5 0 0.6 0.5 0.9 1.1 0.5 0.6 -0.3 1.1 -0.1 1.1 0.5 0 0.6 0.5 0.9 1.1 0.5 0.6 -0.3 1.1 -0.1 1.1 0.5 0 0.7 0.7 1.1 1.6 0.6 0.9 -0.3 1.6 -0.1 1.6 0.5 0 0.6 0.5 0.7 1.1 0.4 0.6 -0.3 1.1 -0.1 1.1 0.4 0 2.1 -3.7 1.1 -11.9 -3.4z"/>
  <path d="M476.9 467.9 c-0.6 -1 5.8 -3.7 6.6 -2.9 0.2 0.3 -1.1 1.3 -2.9 2.1 -1.7 1 -3.4 1.3 -3.7 0.7z"/>
  <path d="M413.9 444.3 c-0.4 -0.6 1.1 -1.1 3.6 -1.1 2.5 0 4.4 0.5 4.4 1.1 0 0.6 -1.6 1.1 -3.6 1.1 -2 0 -4 -0.4 -4.4 -1.1z"/>
  <path d="M404.4 443.6 c-2.9 -0.7 -4.2 -2 -2.8 -2.9 0.6 -0.4 1.2 -0.2 1.2 0.4 0 0.7 0.7 1.1 1.6 0.6 0.9 -0.3 1.6 -0.1 1.6 0.4 0 0.5 0.7 0.7 1.6 0.4 0.9 -0.4 1.6 -0.1 1.6 0.5 0 1.2 -1.1 1.3 -4.8 0.4z"/>
  <path d="M425.1 443.7 c0 -0.9 2.7 -2 14.3 -6.4 3.9 -1.5 0.7 1.4 -4 3.6 -5.8 2.8 -10.2 3.9 -10.2 2.8z"/>
  <path d="M383.7 413.5 c-1.3 -0.9 -1 -1.2 1.6 -1.7 2.9 -0.6 12.4 -3.2 16.7 -4.5 1 -0.3 1.8 -0.1 1.8 0.4 0 0.5 -2.3 1.6 -5.2 2.3 -3 0.7 -5.4 1.8 -5.6 2.3 -0.5 1.5 -7.6 2.2 -9.3 1.1z"/>
  <path d="M437.9 413.2 c0 -0.5 0.5 -0.9 1.2 -0.9 0.6 0 0.9 -0.7 0.5 -1.7 -0.5 -1.3 -0.1 -1.5 1.8 -0.9 1.3 0.4 2.5 1.1 2.7 1.6 0.2 0.4 1 0.6 1.7 0.3 0.7 -0.3 1.9 0.1 2.6 1 1 1.2 0.1 1.4 -4.6 1.4 -3.2 -0.1 -5.9 -0.4 -5.9 -0.9z"/>
  <path d="M580.2 413.4 c-0.4 -0.6 0.5 -1.1 2 -1.1 1.5 0 2.8 0.5 2.8 1.1 0 0.6 -1 1.1 -2 1.1 -1.2 0 -2.5 -0.4 -2.8 -1.1z"/>
  <path d="M455 412.5 c0 -0.5 0.7 -1.3 1.7 -1.6 2.6 -1 3 -0.7 1.5 1 -1.5 1.8 -3.2 2.1 -3.2 0.6z"/>
  <path d="M418.7 409.1 c0 -0.5 1 -1.1 2.2 -1.1 1.2 0 1.8 0.5 1.5 1.1 -0.3 0.6 -1.4 1.1 -2.2 1.1 -0.9 0 -1.5 -0.4 -1.5 -1.1z"/>
  <path d="M424.1 408.1 c0 -0.5 1 -1.1 2.2 -1.1 1.2 0 1.8 0.5 1.5 1.1 -0.3 0.6 -1.4 1.1 -2.2 1.1 -0.9 0 -1.5 -0.4 -1.5 -1.1z"/>
  <path d="M615.9 323.9 c0 -0.7 35.7 -1.1 105.1 -1.1 69.7 0 104.7 0.3 104.3 1.1 -0.4 0.7 -36.5 1.1 -105.1 1.1 -68.8 0 -104.3 -0.3 -104.3 -1.1z"/>
  <path d="M275 147 c2.5 -1.5 294.1 -1.9 293.6 -0.5 -0.3 0.7 -50.7 1.2 -147.9 1.3 -94.7 0.2 -146.8 -0.1 -145.8 -0.7z"/>
 </g>
</svg>